<?xml version="1.0" encoding="utf-8"?>
<!-- Generator: Adobe Illustrator 25.2.0, SVG Export Plug-In . SVG Version: 6.00 Build 0)  -->
<svg version="1.1" id="Layer_1" xmlns="http://www.w3.org/2000/svg" xmlns:xlink="http://www.w3.org/1999/xlink" x="0px" y="0px"
	 viewBox="0 0 888.8 638.8" style="enable-background:new 0 0 888.8 638.8;" xml:space="preserve">
<style type="text/css">
	.st0{fill:#FECC90;}
	.st1{fill:#151848;}
	.st2{fill:#5FFFA7;}
	.st3{fill:#558BFF;}
	.st4{fill:#9DD3FF;}
	.st5{fill:#FFFFFF;}
	.st6{clip-path:url(#SVGID_2_);}
	.st7{fill:#FF885E;}
	.st8{fill:#F7AC41;}
	.st9{fill:#047857;}
	.st10{clip-path:url(#SVGID_4_);}
	.st11{opacity:0.5;}
</style>
<polygon class="st0" points="614.6,138.1 605.1,151 652.3,217.3 672.9,198.4 "/>
<g>
	<path class="st1" d="M592.3,116.4c-0.3,0.3-5.7,10.6-5.7,10.6l7.8,17.9l12.4,11.2l15.3-10.6c0,0-17.4-23.1-17.8-23.9
		S592.3,116.4,592.3,116.4L592.3,116.4z"/>
	<path class="st1" d="M551.7,326.2h-27c-2.2,0-4-1.8-4-4s1.8-4,4-4h27c2.2,0,4,1.8,4,4S553.9,326.2,551.7,326.2z"/>
	<path class="st1" d="M494.4,242.6c-2.2,0-4-1.8-4-4v-27c0-2.2,1.8-4,4-4s4,1.8,4,4v27C498.4,240.8,496.6,242.6,494.4,242.6z"/>
</g>
<path class="st2" d="M425.7,450.5h-15V310.2c0-15.2,12.3-27.5,27.5-27.5h36.3c6.9,0,12.5-5.6,12.5-12.5v-45h15v45
	c0,15.2-12.3,27.5-27.5,27.5h-36.3c-6.9,0-12.5,5.6-12.5,12.5V450.5z"/>
<path class="st3" d="M487.7,528.8h-15V342.2c0-15.2,12.3-27.5,27.5-27.5h37.9v15h-37.9c-6.9,0-12.5,5.6-12.5,12.5L487.7,528.8z"/>
<g>
	<polygon class="st0" points="666.3,222.4 737.2,176.2 728.9,138.1 648.4,197.4 	"/>
	<polygon class="st0" points="753.7,497.4 772,497.4 773.8,510.4 753.7,515.1 	"/>
	<polygon class="st0" points="795.2,497.4 813.8,496.5 814.4,510.4 795.2,515.1 	"/>
</g>
<path d="M737.6,510.4h36.2v17H723v-2.4C723,517,729.5,510.4,737.6,510.4C737.6,510.4,737.6,510.4,737.6,510.4L737.6,510.4z"/>
<path class="st1" d="M769.4,510.4h36.3v17h-50.9v-2.4C754.7,517,761.3,510.4,769.4,510.4C769.3,510.4,769.4,510.4,769.4,510.4
	L769.4,510.4z"/>
<path class="st3" d="M778.1,510.4h36.3v17h-50.9v-2.4C763.4,517,770,510.4,778.1,510.4C778,510.4,778.1,510.4,778.1,510.4
	L778.1,510.4z"/>
<g>
	<rect x="723.5" y="523.3" class="st1" width="90.9" height="4.1"/>
	<path class="st1" d="M773,503.8l-6.7-95.9c-0.1-2.1,0-4.2,0.3-6.2l17-94.4l-12-60l-38.1,11.5l-7.8,130.4c-0.1,2.1,0.1,4.2,0.6,6.2
		L751,503.8L773,503.8z"/>
	<path class="st1" d="M814.3,502.5V393.5l6.3-82.2c3.5-21.2,1-42.9-7.3-62.7l-1.4-3.4l-54.7,5.3l17.3,142.3l16.4,109.8L814.3,502.5z
		"/>
</g>
<path class="st3" d="M364.2,354h136.5c13.5,0,24.5,10.9,24.5,24.5V515c0,13.5-10.9,24.5-24.5,24.5H364.2
	c-13.5,0-24.5-10.9-24.5-24.5V378.5C339.8,365,350.7,354,364.2,354z"/>
<path class="st4" d="M381,354h136.5c13.5,0,24.5,10.9,24.5,24.5V515c0,13.5-10.9,24.5-24.5,24.5H381c-13.5,0-24.5-10.9-24.5-24.5
	V378.5C356.5,365,367.4,354,381,354z"/>
<circle class="st5" cx="449.1" cy="446.8" r="58.1"/>
<g>
	<defs>
		<circle id="SVGID_1_" cx="449.2" cy="446.8" r="58.1"/>
	</defs>
	<clipPath id="SVGID_2_">
		<use xlink:href="#SVGID_1_"  style="overflow:visible;"/>
	</clipPath>
	<g transform="translate(-44.47,-70.58)" class="st6">
		<path class="st1" d="M493.7,558.5L493.7,558.5c3.5,0,6.3,2.8,6.3,6.3v10.4c0,3.5-2.8,6.3-6.3,6.3l0,0c-3.5,0-6.3-2.8-6.3-6.3
			v-10.4C487.4,561.3,490.2,558.5,493.7,558.5z"/>
		<path class="st1" d="M493.7,452.9L493.7,452.9c3.5,0,6.3,2.8,6.3,6.3v10.4c0,3.5-2.8,6.3-6.3,6.3l0,0c-3.5,0-6.3-2.8-6.3-6.3
			v-10.4C487.4,455.7,490.2,452.9,493.7,452.9z"/>
	</g>
</g>
<circle class="st1" cx="418.2" cy="446.8" r="12.1"/>
<circle class="st1" cx="480.2" cy="446.8" r="12.1"/>
<circle class="st4" cx="449.2" cy="446.8" r="7.3"/>
<path class="st5" d="M439.8,438.6l1.1-1.1c0.5-0.5,1.4-0.5,1.9,0l15.6,15.6c0.5,0.5,0.5,1.4,0,1.9l-1.1,1.1c-0.5,0.5-1.4,0.5-1.9,0
	l-15.6-15.6C439.3,439.9,439.3,439.1,439.8,438.6z"/>
<path class="st5" d="M501.3,524.8H397.1c-14.3,0-25.9-11.6-26-26V394.7c0-14.3,11.6-25.9,26-26h104.2c14.3,0,26,11.6,26,26v104.2
	C527.3,513.2,515.6,524.8,501.3,524.8z M397.1,371.7c-12.7,0-22.9,10.3-23,23v104.2c0,12.7,10.3,22.9,23,22.9h104.2
	c12.7,0,23-10.3,23-23V394.7c0-12.7-10.3-23-23-23L397.1,371.7z"/>
<path class="st1" d="M544.4,178.1L544.4,178.1c2.3,2.3,2.3,6,0,8.3l-26.7,26.7c-2.3,2.3-6,2.3-8.3,0l0,0c-2.3-2.3-2.3-6,0-8.3
	l26.7-26.7C538.3,175.8,542.1,175.8,544.4,178.1z"/>
<g>
	<path class="st7" d="M542.6,191.5l-11.7-11.7c-3.5-3.5-3.5-9.2,0-12.7l14.6-14.6c3.5-3.5,9.2-3.5,12.7,0l11.7,11.7
		c3.5,3.5,3.5,9.2,0,12.7l-14.6,14.6C551.8,195.1,546.1,195.1,542.6,191.5z"/>
	<path class="st7" d="M549.5,172.9L549.5,172.9c-5.6-5.6-5.6-14.7,0-20.2L630,72.1c5.6-5.6,14.7-5.6,20.2,0l0,0
		c5.6,5.6,5.6,14.7,0,20.2l-80.5,80.5C564.2,178.5,555.1,178.5,549.5,172.9z"/>
	<path class="st7" d="M613.2,109.3L613.2,109.3c-2.7-2.7-2.7-7.1,0-9.8l53-53c2.7-2.7,7.1-2.7,9.8,0l0,0c2.7,2.7,2.7,7.1,0,9.8
		l-53,53C620.3,112,615.9,112,613.2,109.3z"/>
	<path class="st7" d="M575.9,181.5l-35-35c-2.2-2.2-2.2-5.6,0-7.8v0c2.2-2.2,5.6-2.2,7.8,0l35,35c2.2,2.2,2.2,5.6,0,7.8v0
		C581.6,183.7,578.1,183.7,575.9,181.5z"/>
</g>
<polygon class="st0" points="559.2,256.5 559.6,295.1 583,241 560.8,241 560.9,208.1 538.2,256.5 "/>
<path class="st8" d="M112.7,175.6h185.7c19.4,0,35.1,15.7,35.1,35.1v387c0,19.4-15.7,35.1-35.1,35.1H112.7
	c-19.4,0-35.1-15.7-35.1-35.1v-387C77.6,191.3,93.3,175.6,112.7,175.6z"/>
<path class="st9" d="M119.1,181.6h185.7c19.4,0,35.1,15.7,35.1,35.1v387c0,19.4-15.7,35.1-35.1,35.1H119.1
	c-19.4,0-35.1-15.7-35.1-35.1v-387C84,197.3,99.7,181.6,119.1,181.6z"/>
<path class="st1" d="M124.4,201.2h175c12.7,0,22.9,10.3,22.9,22.9v376c0,12.7-10.3,22.9-22.9,22.9h-175c-12.7,0-22.9-10.3-22.9-22.9
	v-376C101.5,211.5,111.7,201.2,124.4,201.2z"/>
<path class="st5" d="M211.9,523.2c-50.3,0-91-40.7-91-91s40.7-91,91-91s91,40.7,91,91l0,0C302.9,482.4,262.2,523.1,211.9,523.2z
	 M211.9,348.5c-46.2,0-83.7,37.4-83.7,83.6s37.4,83.7,83.6,83.7s83.7-37.4,83.7-83.6c0,0,0,0,0,0C295.5,386,258.1,348.6,211.9,348.5
	z"/>
<circle class="st7" cx="211.9" cy="432.6" r="72"/>
<circle class="st7" cx="218.3" cy="431.7" r="72"/>
<circle class="st0" cx="218.3" cy="431.7" r="72"/>
<g>
	<defs>
		<circle id="SVGID_3_" cx="224.1" cy="431.7" r="55.2"/>
	</defs>
	<clipPath id="SVGID_4_">
		<use xlink:href="#SVGID_3_"  style="overflow:visible;"/>
	</clipPath>
	<g transform="translate(-44.47,-70.58)" class="st10">
		<circle class="st1" cx="268.6" cy="502.3" r="55.2"/>
		<circle class="st7" cx="257" cy="502.3" r="55.2"/>
		<rect x="257" y="434.3" class="st0" width="27.8" height="128.7"/>
		<rect x="247.3" y="434.3" class="st1" width="10" height="128.7"/>
	</g>
</g>
<ellipse transform="matrix(7.088903e-02 -0.9975 0.9975 7.088903e-02 -429.3948 677.386)" class="st7" cx="148.9" cy="569.2" rx="29.3" ry="29.3"/>
<circle class="st3" cx="275.3" cy="569.2" r="29.3"/>
<rect x="119.7" y="242.7" class="st5" width="184.5" height="79.4"/>
<rect x="128.5" y="250.7" class="st0" width="166.8" height="63.5"/>
<g>
	<rect x="283.9" y="250.7" class="st1" width="11.4" height="63.5"/>
	<path class="st1" d="M171.8,263.3v13.6l-4.3,4.3l-1.4-1.4v-18.5L171.8,263.3z M166.1,302.6V284l1.4-1.4l4.3,4.3v13.5L166.1,302.6z
		 M191.1,307.6h-21.4c-1.8-0.4-3.2-1.8-3.6-3.6l5.7-2.1H189L191.1,307.6z M189,261.9h-17.1l-5.7-2.1c0.4-1.8,1.8-3.2,3.6-3.6h21.3
		L189,261.9z M190.4,276.9v-15l2.1-5.7c1.8,0.4,3.2,1.8,3.6,3.6v20l-1.4,1.4L190.4,276.9z M194.7,282.6l1.4,1.4v20
		c-0.4,1.8-1.8,3.2-3.6,3.6l-2.1-5.7v-15L194.7,282.6z"/>
	<path class="st1" d="M211.8,263.3v13.6l-4.3,4.3l-1.4-1.4v-18.5L211.8,263.3z M206.1,302.6V284l1.4-1.4l4.3,4.3v13.5L206.1,302.6z
		 M231.1,307.6h-21.4c-1.8-0.4-3.2-1.8-3.6-3.6l5.7-2.1h17.1L231.1,307.6z M228.9,261.9h-17.1l-5.7-2.1c0.4-1.8,1.8-3.2,3.6-3.6
		h21.3L228.9,261.9z M230.4,276.9v-15l2.1-5.7c1.8,0.4,3.2,1.8,3.6,3.6v20l-1.4,1.4L230.4,276.9z M234.6,282.6l1.4,1.4v20
		c-0.4,1.8-1.8,3.2-3.6,3.6l-2.1-5.7v-15L234.6,282.6z"/>
	<path class="st1" d="M251.7,263.3v13.6l-4.3,4.3l-1.4-1.4v-18.5L251.7,263.3z M246,302.6V284l1.4-1.4l4.3,4.3v13.5L246,302.6z
		 M271,307.6h-21.5c-1.8-0.4-3.2-1.8-3.6-3.6l5.7-2.1h17.1L271,307.6z M268.8,261.9h-17.1l-5.7-2.1c0.4-1.8,1.8-3.2,3.6-3.6H271
		L268.8,261.9z M270.3,276.9v-15l2.1-5.7c1.8,0.4,3.2,1.8,3.6,3.6v20l-1.5,1.4L270.3,276.9z M274.6,282.6l1.4,1.4v20
		c-0.4,1.8-1.8,3.2-3.6,3.6l-2.1-5.7v-15L274.6,282.6z"/>
</g>
<path class="st7" d="M732.4,284.1c-4.8-6.7,1-31.4,1-41.3l-8.6-93.5c2.9-23.2,18.8-30.6,41-30.6l23.7-0.4c29.4,0,40.8,18.3,36.8,57
	c-4.2,40.1,8,121.1-4.5,125.2S737.7,291.4,732.4,284.1z"/>
<path class="st1" d="M615.5,318.3L615.5,318.3c0.1,3.3-2.5,5.9-5.8,6l-37.8,0.7c-3.3,0.1-5.9-2.5-6-5.8v0c-0.1-3.3,2.5-5.9,5.8-6
	l37.8-0.7C612.7,312.4,615.4,315,615.5,318.3z"/>
<g>
	<path class="st3" d="M604.8,326.7l-0.3-16.5c-0.1-5,3.9-9,8.8-9.1l20.4-0.4c5-0.1,9,3.9,9.1,8.8l0.3,16.5c0.1,5-3.9,9-8.8,9.1
		l-20.4,0.4C608.9,335.6,604.9,331.7,604.8,326.7z"/>
	<path class="st3" d="M622.7,318.1L622.7,318.1c-0.1-7.9,6.2-14.4,14.1-14.6l113.8-2c7.9-0.1,14.4,6.2,14.6,14.1l0,0
		c0.1,7.9-6.2,14.4-14.1,14.6l-113.8,2C629.4,332.3,622.9,326,622.7,318.1z"/>
	<path class="st3" d="M712.7,316.5L712.7,316.5c-0.1-3.9,3-7,6.8-7.1l74.9-1.3c3.8-0.1,7,3,7.1,6.8l0,0c0.1,3.8-3,7-6.8,7.1
		l-74.9,1.3C716,323.4,712.8,320.4,712.7,316.5z"/>
	<path class="st3" d="M635.7,342.6l-0.9-49.5c-0.1-3,2.4-5.6,5.4-5.6l0,0c3-0.1,5.6,2.4,5.6,5.4l0.9,49.5c0.1,3-2.4,5.6-5.4,5.6l0,0
		C638.3,348.1,635.8,345.7,635.7,342.6z"/>
</g>
<path class="st8" d="M150.4,572.8H29.8C13.4,572.8,0,559.5,0,543V125.1c0-16.5,13.4-29.8,29.8-29.8h456c11,0,19.8-8.9,19.8-19.9
	c0,0,0,0,0,0V29.8C505.7,13.4,519,0,535.5,0h121.5c16.5,0,29.8,13.4,29.8,29.8c0,8-3.2,15.7-8.9,21.3l-26.1,24.7l-6.9-7.3l26-24.6
	c7.8-7.7,7.8-20.3,0.1-28c-3.7-3.8-8.8-5.9-14.1-5.9H535.5c-10.9,0-19.8,8.9-19.8,19.8v45.6c0,16.5-13.3,29.8-29.8,29.8h-456
	c-10.9,0-19.8,8.9-19.8,19.8v418c0,10.9,8.9,19.8,19.8,19.8h120.5L150.4,572.8z"/>
<path class="st3" d="M845.9,603.4h-225c-18.4,0-34.8-11.8-40.7-29.3h-305v-10h302.9c-0.1-1.2-0.2-2.4-0.2-3.6v-41.2
	c0-23.7,19.2-42.9,42.9-42.9s42.9,19.2,42.9,42.9v12c0,23.7-19.2,42.9-42.9,42.9H591c5.4,11.7,17.1,19.2,29.9,19.2h225
	c18.1,0,32.9-14.7,32.9-32.9v-207c0-18.1-14.7-32.9-32.9-32.9h-66.4v-10h66.4c23.7,0,42.9,19.2,42.9,42.9v207
	C888.8,584.2,869.6,603.4,845.9,603.4L845.9,603.4z M588.2,564.2h32.7c18.1,0,32.9-14.7,32.9-32.9v-12c0-18.2-14.7-32.9-32.9-32.9
	S588,501.2,588,519.3v41.2C588,561.8,588.1,563,588.2,564.2z"/>
<ellipse transform="matrix(0.7051 -0.7091 0.7091 0.7051 81.1737 557.02)" class="st7" cx="710.3" cy="180.9" rx="10.2" ry="26.1"/>
<polygon class="st7" points="743.2,188.2 728.8,199.3 691.8,162.5 733.1,129.6 "/>
<path class="st0" d="M652.3,217.3c0,0,6.7,9.9,14,5.1s-5.4-19.2-5.4-19.2L652.3,217.3z"/>
<path class="st1" d="M783.6,154.4l-14.2,31.4c-3.1,6.9-0.1,15,6.7,18.3l8.5,4l40.8-0.1v-20L783.6,154.4z"/>
<g>
	<polygon class="st0" points="819.4,247.4 823.4,164.6 787.3,165.6 788.4,245.2 	"/>
	<polygon class="st0" points="740.3,292.1 747,303.9 814.4,256.9 795.1,236.2 	"/>
	<path class="st0" d="M819.4,247.4c0,0,0.3,7.9-8.2,11.1c-8.5,3.2-11.5-19.1-11.5-19.1L819.4,247.4z"/>
</g>
<ellipse class="st7" cx="801.6" cy="189" rx="27.7" ry="10.9"/>
<polygon class="st7" points="773.8,189 789.6,133.4 826.2,150 829.3,189 "/>
<g>
	<path class="st1" d="M606.9,121.1c0,0,0.8,29.2,9.2,24.9S611.6,111.8,606.9,121.1z"/>
	<path class="st1" d="M595.5,106.7l-6.8,1c-1.3,0.2-2.5,0.8-3.5,1.7l-1.8,1.7c-1.9,1.9-3.2,4.3-3.6,7l-0.9,5.3l8.7-0.8
		c2.1-0.2,3.9-1.3,5.1-3l1.7-2.5C596.5,114.1,596.9,110.2,595.5,106.7L595.5,106.7z"/>
	<path class="st1" d="M629.5,150.6l-19.6,11.6c-1.2,0.7-1.6,2.3-0.9,3.6c0.1,0.1,0.1,0.2,0.2,0.3l0.5,0.6c0.8,1,2.2,1.3,3.3,0.6
		l19.1-12.2c1.2-0.8,1.5-2.4,0.8-3.6c-0.1-0.1-0.2-0.2-0.2-0.3C631.9,150.1,630.6,149.9,629.5,150.6L629.5,150.6z"/>
	<polygon class="st1" points="629.5,150.6 617,139.4 602.9,152.5 609.9,162.1 	"/>
</g>
<g>
	<path class="st1" d="M762.5,85.2L760.7,62c0,0-2.2-11.4-15.8-11.4s-10-2.2-10-2.2s44.4-28.6,63.5-2.7s-29,44.3-29,44.3L762.5,85.2z
		"/>
	<path class="st1" d="M798.5,45.6c0,0,11.8,2.2,11.8,18.3c0,4.7-2.5,10.3-3.7,16c-2.8,13.9-7.5,27.9-21.2,27.9
		c-19.3,0-20.8-13.2-20.8-13.2l-2.1-9.5L798.5,45.6z"/>
	<path class="st1" d="M735,48.3c0,0,44.4-28.6,63.5-2.7c0,0,11.8,2.2,11.8,18.3c0,4.7-2.5,10.3-3.7,16c-2.8,13.9-7.5,27.9-21.2,27.9
		c-19.3,0-20.8-13.2-20.8-13.2l-2.1-9.5L760.7,62c0,0-2.2-11.4-15.8-11.4S735,48.3,735,48.3L735,48.3z"/>
	<path class="st1" d="M798.6,46.4c0,0-8-10.3,7.5-9S796.1,39.9,798.6,46.4z"/>
</g>
<path class="st1" d="M772.4,74.3l-9.9,10.9l2.1,9.5c0,0,1.5,13.2,20.8,13.2c13.7,0,18.5-14,21.2-27.9c0.4-1.9,0.9-3.8,1.5-5.6H772.4
	z"/>
<g>
	<path class="st0" d="M755.2,108.3h25.2V64.6l-18.4-4.5l-20.3,4.5v30.2C741.7,102.2,747.8,108.3,755.2,108.3L755.2,108.3z"/>
	<path class="st0" d="M754.5,101.7v15.7c0,0,0,5.4,2.3,8.6c1.1,1.6,7.3,11.9,20.7,8.1c12.4-3.5,12-15.7,12-15.7s-5.6-8.1-4.1-17.5
		c2.2-14.2-23.4-2-23.4-2L754.5,101.7z"/>
	<path class="st0" d="M787.5,86.7c3.2,0,5.8-2.6,5.8-5.8c0-0.1,0-0.2,0-0.4c-0.5-8.4-2.7-22.8-11.2-26C769.9,50,754,78.4,754,78.4
		l1.2,29.9l21.7,2c4.2,0,8.1-3,8.1-7.1L787.5,86.7z"/>
</g>
<path class="st1" d="M740,67.1c-5.3-0.5-16.8-6.5-19.5-10.4c21.6-6.3,34.7-19.5,50-19.5c18.8,0,28.7,10.2,28.7,29l-1.5,2.7
	c-0.4,2.2-2.5,6.9-4.8,7.1l-1.6,11.9c-1.7,0.1-3.4-0.6-4.5-2l-4.9-6.1c-3.3-4.1,15.3-16.2-3.5-17.2C766.8,62.1,740,67.1,740,67.1z"
	/>
<path class="st1" d="M742.1,92.3c-1.3,1.4-2,3.3-1.6,5.2c0.8,4.3,2.1,9.8,4,11.1c4.8,3.2,21,3,25,1.8s9.8-8.8,10.9-13.4
	s1.6-17.1,1.6-17.1l-2.4-5.6c0,0,0,12.6-3.6,19.5c-1,2-6,10.7-11.7,1.7C762.9,93.4,750.2,84.2,742.1,92.3L742.1,92.3z"/>
<ellipse transform="matrix(7.149742e-02 -0.9974 0.9974 7.149742e-02 599.7385 840.5286)" class="st0" cx="751.3" cy="98.1" rx="3.1" ry="6.8"/>
<path class="st1" d="M784.6,69.8l18.1,0.2c3.3,0,6.8-0.6,4.8,6.4l-0.5,1.7l-0.7,3.2c-0.5,2.3-2.5,3.9-4.8,3.9l-15.7,0.3
	c-2.4,0-4.5-1.6-5-4l-1.1-5.6c-0.6-2.7,1.1-5.4,3.8-6C783.8,69.8,784.2,69.8,784.6,69.8L784.6,69.8z"/>
<ellipse class="st0" cx="787" cy="84.2" rx="5.9" ry="8.5"/>
<g transform="translate(-44.47,-70.58)" class="st11">
	<ellipse class="st7" cx="831.4" cy="154.8" rx="5.9" ry="8.5"/>
</g>
<g>
	<polygon class="st1" points="728.8,199.3 726.8,164.6 718.9,199.3 724.2,200.6 	"/>
	<path class="st1" d="M748,279.2c3,4.2,9.7,14,13,18.9c1,1.5,3,1.9,4.4,0.9c0.1-0.1,0.2-0.1,0.3-0.2c1.2-1,1.5-2.8,0.7-4.2
		l-12.5-19.7c-0.9-1.5-2.9-1.9-4.4-1c-0.3,0.2-0.5,0.4-0.8,0.7l-0.6,0.7C747.2,276.4,747.1,278,748,279.2L748,279.2z"/>
	<polygon class="st1" points="747.6,304.5 763.3,295.3 750.2,277.2 731.5,293.1 	"/>
	<path class="st1" d="M733.9,328.5l9.4,0.8c1.4-0.2,2.8-0.9,3.7-1.9c1.8-2,5.2-9.7,5.1-11.1l-2.4-11l-6.2-5.8h-11.4l-4,2.5l5.2,9.1
		c1.6,2.9,1.8,6.3,0.5,9.4l-2,4.6c-0.5,1.3,0.1,2.7,1.3,3.2C733.4,328.4,733.6,328.5,733.9,328.5z"/>
	<path class="st1" d="M740.9,288.4l-15.2,7.4c-0.6,0.3-1.1,0.7-1.5,1.2l-4,5l13.1-0.2L740.9,288.4z"/>
</g>
</svg>
