<?xml version="1.0" encoding="utf-8"?>
<!-- Generator: Adobe Illustrator 25.2.0, SVG Export Plug-In . SVG Version: 6.00 Build 0)  -->
<svg version="1.1" id="Layer_1" xmlns="http://www.w3.org/2000/svg" xmlns:xlink="http://www.w3.org/1999/xlink" x="0px" y="0px"
	 viewBox="0 0 106.6 45.9" style="enable-background:new 0 0 106.6 45.9;" xml:space="preserve">
<style type="text/css">
	.st0{fill:#F49625;}
	.st1{font-family:'Futura-Medium';}
	.st2{font-size:12px;}
	.st3{font-family:'MyriadPro-Regular';}
</style>
<path d="M24,9.4c0.6,0.2,1,0.7,1.4,1.3C30,18.8,34.7,27,39.4,35.2c0.2,0.3,0.3,0.6,0.4,1c0,0.2,0,0.5,0,0.7
	c-0.2,0.3-0.4,0.6-0.7,0.9c-0.2,0.2-0.6,0.2-0.9,0.3c-9.8,0-19.5,0-29.3,0c-0.7-0.2-1.2-0.5-1.5-1.2c0-0.2,0-0.5,0-0.7
	c0.8-1.5,1.7-3.1,2.5-4.6c4-6.9,8-13.8,11.9-20.7c0.3-0.6,0.8-1.1,1.4-1.4C23.6,9.4,23.8,9.4,24,9.4z M23.6,35.9c4,0,8,0,11.9,0
	c1.1,0,1.4-0.5,0.9-1.5c-4-6.9-8-13.8-11.9-20.8c-0.5-0.9-1.2-0.9-1.7,0c-4,6.9-7.9,13.7-11.9,20.6c-0.7,1.2-0.4,1.6,1,1.6
	C15.8,35.9,19.7,35.9,23.6,35.9z"/>
<path class="st0" d="M21.9,26.1c1.5-0.9,3-1.8,4.5-2.7c-0.8,2.6-1.6,5.2-2.3,7.8c0.6,0,1.2,0,1.8,0c-0.9,1.3-1.8,2.6-2.7,3.9
	c-0.6-1.3-1.1-2.6-1.7-3.9c0.5,0,1,0,1.5,0c0.2-1.6,0.5-3.1,0.7-4.6c-1.6,0.8-3,1.6-4.6,2.4c0.3-1,0.6-2,0.9-3
	c0.8-2.8,1.6-5.6,2.4-8.4c0.1-0.3,0.2-0.4,0.6-0.4c0.7,0.1,1.3,0.1,2.1,0.2C24,20.3,23,23.2,21.9,26.1z"/>
<text transform="matrix(1 0 0 1 43.73 21.5634)"><tspan x="0" y="0" class="st1 st2">Elektricien</tspan><tspan x="55.1" y="0" class="st3 st2"> </tspan><tspan x="0" y="14.4" class="st1 st2">Rotterdam</tspan></text>
</svg>
