<?xml version="1.0" encoding="utf-8"?>
<!-- Generator: Adobe Illustrator 26.1.0, SVG Export Plug-In . SVG Version: 6.00 Build 0)  -->
<svg version="1.1" id="Laag_1" xmlns="http://www.w3.org/2000/svg" xmlns:xlink="http://www.w3.org/1999/xlink" x="0px" y="0px"
	 viewBox="0 0 344.2 447" style="enable-background:new 0 0 344.2 447;" xml:space="preserve">
<style type="text/css">
	.st0{fill:url(#SVGID_1_);}
	.st1{fill:#005743;}
</style>
<linearGradient id="SVGID_1_" gradientUnits="userSpaceOnUse" x1="0" y1="198.2471" x2="344.1989" y2="198.2471">
	<stop  offset="0" style="stop-color:#BB5F49"/>
	<stop  offset="1.260874e-02" style="stop-color:#C0634C"/>
	<stop  offset="7.497361e-02" style="stop-color:#D67358"/>
	<stop  offset="0.1356" style="stop-color:#E47D60"/>
	<stop  offset="0.1922" style="stop-color:#E98163"/>
	<stop  offset="0.2007" style="stop-color:#EA8466"/>
	<stop  offset="0.2706" style="stop-color:#F0A07D"/>
	<stop  offset="0.3386" style="stop-color:#F5B48F"/>
	<stop  offset="0.4033" style="stop-color:#F8BF9A"/>
	<stop  offset="0.4613" style="stop-color:#F9C39E"/>
	<stop  offset="0.4742" style="stop-color:#F7BD98"/>
	<stop  offset="0.5358" style="stop-color:#F1A380"/>
	<stop  offset="0.5964" style="stop-color:#EC906F"/>
	<stop  offset="0.6551" style="stop-color:#EA8466"/>
	<stop  offset="0.7099" style="stop-color:#E98163"/>
	<stop  offset="0.9506" style="stop-color:#BB5F49"/>
</linearGradient>
<path class="st0" d="M344.2,396.5H0V0h344.2V396.5z M3.9,392.5h336.4V4H3.9V392.5z"/>
<path class="st1" d="M104.5,292.6H85.3V447H59.7V292.6H40.4v-21.4h64.1V292.6z M142.8,447h-25.6V271.2h25.6V447z M212.7,447h-50.3
	V271.2h50.1v21.1H188v25.6h23.8v20.3H188V425h24.7V447z M277,447l-26.5-109.7h-0.9V447h-22V271.2h28.3L281.2,384h0.9V271.2h22.3V447
	H277z M40.1,255.4h25.7V114.6L33.6,96.4v-0.3L125.4,58v197.4h25.7v4.3h-111V255.4z M282.4,219.1v36.3h22.1v4.3h-97.9v-4.3h16.2
	v-36.3h-71.7v-5.4c27.9-26.3,52.8-97.2,56.9-148.9h77.4c-22.2,52.8-55.5,92.9-127.5,148.9h65v-37.4l59.6-20v57.4h23v5.4H282.4z"/>
</svg>
