<?xml version="1.0" encoding="utf-8"?>
<!-- Generator: Adobe Illustrator 19.0.0, SVG Export Plug-In . SVG Version: 6.00 Build 0)  -->
<svg version="1.1" id="Layer_1" xmlns="http://www.w3.org/2000/svg" xmlns:xlink="http://www.w3.org/1999/xlink" x="0px" y="0px"
	 viewBox="-82 247.1 675.2 102.2" style="enable-background:new -82 247.1 675.2 102.2;" xml:space="preserve">
<style type="text/css">
	.st0{fill:#3282B8;}
</style>
<g id="mytAvE.tif">
	<g id="XMLID_1_">
		<path id="XMLID_205_" class="st0" d="M84.2,305.4c-4.9,2.5-4.8,6.9-4.6,11.4c0.2,3.5,0,3.6-3.5,3.6c-2,0-4-0.1-6,0
			c-1.3,0.1-1.7-0.5-1.7-1.8c0-18.8,0-37.7,0-56.5c0-1.3,0.4-1.8,1.7-1.7c2.5,0.1,5,0.1,7.5,0c1.6-0.1,2.1,0.5,2.1,2.1
			c-0.1,9.7,0,19.3,0,29c0,0.8,0,1.6,0,3.2c1.6-1.7,2.7-2.9,3.8-4.2c3-3.4,6-6.7,8.9-10.1c0.9-1,1.8-1.5,3.2-1.5
			c3.2,0.1,6.3,0,9.5,0c1.4,0,1.9-0.5,1.9-1.9c-0.1-3.7,0-7.3,0-11c0-1.4,0.3-2.1,1.7-2.5c2.5-0.7,4.9-1.5,7.3-2.5
			c2-0.8,2.2,0,2.1,1.7c-0.1,5.9,0,11.8,0,17.9c3.3-0.9,6.4-1.7,9.7-1.2c9.7,1.3,16.5,8.7,16.8,18.4c0.2,6.9,0,13.8,0.1,20.7
			c0,1.5-0.5,1.8-1.9,1.8c-2.2-0.1-4.5-0.1-6.7,0c-1.9,0.1-2.6-0.4-2.5-2.4c0.1-6.3,0.1-12.7,0-19c-0.1-5.2-3.5-8.7-8.1-8.5
			c-4.2,0.2-7.4,3.3-7.4,7.5c0,6.7-0.1,13.3,0,20c0,1.8-0.4,2.5-2.4,2.4c-2.2-0.2-4.3-0.2-6.5,0c-1.9,0.1-2.3-0.6-2.3-2.4
			c0.1-11.7,0-23.5,0-35.2c0-0.7,0-1.3,0-2c-1-0.2-1.2,0.6-1.6,1c-4.1,4.5-8.1,9.1-12.3,13.5c-1.2,1.2-1.1,2-0.2,3.4
			c4.3,6.5,8.4,13,12.6,19.5c0.4,0.6,0.8,1.2,1.4,2.2c-4.3,0-8.3,0-12.3,0c-1,0-1.3-0.9-1.8-1.5c-2.5-3.9-4.9-7.7-7.4-11.6
			C85.1,306.6,84.8,305.7,84.2,305.4z"/>
		<path id="XMLID_199_" class="st0" d="M265.1,260c3.6,1.2,6.9,2.3,10.2,3.3c0.9,0.3,0.9,1,0.9,1.8c0,12.1,0.2,24.2-0.1,36.2
			c-0.3,10.5-9.5,19.1-20.4,19.5c-10.6,0.4-20.1-7.4-21.5-17.7c-2.3-16.6,13-28.9,28.7-23c2,0.7,2.3,0.4,2.3-1.6
			C265.1,272.5,265.1,266.4,265.1,260z M255,309.8c5.6,0,10.2-4.5,10.1-10.1c0-5.4-4.6-10-10-10c-5.6,0-10.1,4.4-10.1,10.2
			C245.1,305.4,249.4,309.8,255,309.8z"/>
		<path id="XMLID_196_" class="st0" d="M-62.8,283.2c0-5.9,0-11.8,0-17.7c0-1.4,0.3-2.1,1.7-2.5c2.5-0.7,4.9-1.5,7.3-2.4
			c1.8-0.7,2.1-0.1,2.1,1.6c-0.1,5.5,0,11-0.1,16.5c0,1.8,0.2,2.3,2.1,1.6c13.5-5.2,27.1,2.9,29,17.3c1.1,8.3-3.5,17-11.3,21.1
			c-7.5,4-17.4,2.8-23.6-2.8c-4.9-4.4-7.3-9.8-7.3-16.3C-62.8,294-62.8,288.6-62.8,283.2z M-41.9,309.8c5.5,0.1,10.3-4.5,10.3-10
			c0-5.4-4.5-10-9.9-10.1c-5.6-0.1-10.2,4.4-10.3,10C-51.8,305.1-47.4,309.7-41.9,309.8z"/>
		<path id="XMLID_193_" class="st0" d="M291.1,305.2c3.1,5.1,9.5,6.4,14.3,2.9c1.3-1,2-1,3,0.1c1.6,1.7,3.3,3.2,5.1,4.8
			c1,0.8,1.1,1.5,0,2.4c-6.4,5.1-13.4,6.9-21.2,4c-7.8-2.9-12.5-8.7-13.5-17c-1.4-11.1,6.2-21.3,16.7-23.1
			c11.6-2,21.8,4.8,24.4,16.1c0.6,2.8,0.4,5.6,0.5,8.4c0.1,1.7-1,1.4-2,1.4c-8.1,0-16.1,0-24.2,0
			C293.3,305.2,292.3,305.2,291.1,305.2z M307.9,294.6c-1.6-3.1-4.5-4.9-8.1-5c-3.4-0.1-6.1,1.3-8.2,3.9c-0.7,0.9-0.2,1.2,0.7,1.2
			C297.4,294.6,302.6,294.6,307.9,294.6z"/>
		<path id="XMLID_190_" class="st0" d="M36.6,305.2c2.8,4.9,9.5,6.3,14,2.9c1.5-1.1,2.2-1,3.4,0.3c1.4,1.5,2.9,3,4.5,4.3
			c1.8,1.3,1.1,2.1-0.2,3.2c-7.6,6.3-18.7,6.5-26.5,0.3c-7.6-6-10-16.6-5.9-25.2c4.2-8.8,13.7-13.6,23.4-11.7
			c9.3,1.8,16.2,10.3,16.5,20c0.2,6,0.2,6-5.9,6C52.2,305.2,44.5,305.2,36.6,305.2z M36.2,294.4c5.9,0,11.4,0,17.3,0
			c-2.3-3.2-5-4.8-8.5-4.8C41.3,289.5,38.5,291.1,36.2,294.4z"/>
		<path id="XMLID_187_" class="st0" d="M23.2,299.8c0,11.7-9.4,21.1-21.1,21.1c-11.8,0-21.3-9.5-21.3-21.3c0.1-11.8,9.5-21,21.4-21
			C13.9,278.7,23.2,288,23.2,299.8z M2.1,309.8c5.5,0,10-4.6,10-10c0-5.5-4.7-10.1-10.3-10.1c-5.4,0.1-10.1,4.8-9.9,10.2
			C-8,305.4-3.4,309.8,2.1,309.8z"/>
		<path id="XMLID_181_" class="st0" d="M190.2,299.8c0,11.7-9.4,21.1-21.1,21.1c-11.9,0-21.2-9.5-21.1-21.3
			c0.1-11.7,9.4-20.9,21.3-20.9C181,278.7,190.2,288,190.2,299.8z M159.1,299.7c0,5.7,4.5,10.2,10.1,10.2c5.5,0,10-4.5,10.1-10
			c0-5.6-4.6-10.2-10.1-10.2C163.6,289.7,159.1,294.2,159.1,299.7z"/>
		<path id="XMLID_177_" class="st0" d="M230.6,292.8c-0.2,3.6,0.4,8.1-0.3,12.5c-1.5,9.5-9.2,15.8-19,15.6
			c-9.1-0.2-16.7-7.1-17.6-16.3c-0.8-8-0.1-16.1-0.3-24.2c0-1.3,0.7-1.4,1.8-1.4c2.5,0,5,0.1,7.5,0c1.6-0.1,2,0.5,1.9,2
			c-0.1,6.7,0,13.3,0,20c0,1.3,0,2.7,0.5,3.9c1.3,3.3,4.7,5.3,8.2,4.8c3.6-0.6,6.2-3.6,6.3-7.6c0.1-6.7,0.2-13.3,0-20
			c-0.1-2.5,0.6-3.5,3.1-3.1c2.6,0.3,6.2-1.1,7.6,0.6c1.3,1.5,0.4,4.9,0.4,7.5C230.6,288.7,230.6,290.4,230.6,292.8z"/>
		<path id="XMLID_17_" class="st0" d="M347,288.2c0,2-3,1-4.5,1.6c-5,2.1-8.4,6.8-8.4,12.2c0,5.4-0.1,10.8,0,16.2
			c0,1.6-0.3,2.3-2,2.1c-2.3-0.1-4.7-0.1-7,0c-1.7,0.1-2.1-0.6-2-2.2c0.1-3.1,0-6.2,0-9.9c0.2-3.4-0.3-7.5,0.5-11.6
			c2.1-9.9,11.4-18.7,21.2-18.7c2.3,0,2.3,0.1,2.3,2.1"/>
		<path id="XMLID_14_" d="M456.7,318.4c-6.8,2.7-13.1,2.6-19.3-0.8c-8.4-4.7-12.4-14.8-9.7-24c2.7-9.1,11.8-15.4,21.3-14.8
			c9.6,0.7,17.7,7.8,19,17.2c1,7.8,1.2,15.8-0.1,23.6c-2.3,15-21.4,21.9-33.2,12.3c-1.3-1-1.2-1.7-0.1-2.7c0.9-0.8,1.7-1.6,2.4-2.5
			c2-2.4,3.6-4.2,7.5-2.1C449.5,327.1,455.5,323.7,456.7,318.4z M447.6,309.3c5.4,0.1,9.9-4.3,9.9-9.7c0-5.3-4.6-9.9-9.8-9.9
			s-9.6,4.4-9.7,9.7C437.9,304.9,442.1,309.2,447.6,309.3z"/>
		<path id="XMLID_11_" d="M514.1,299.9c0,11.8-9.3,21.2-21,21.2S472,311.7,472,300c0-11.7,9.4-21.1,21.1-21.1
			C504.8,278.8,514.1,288.1,514.1,299.9z M482.9,299.9c0,5.6,4.6,10.2,10.1,10.2c5.4,0,10-4.7,10.1-10.1c0.1-5.5-4.5-10.3-10-10.4
			C487.7,289.6,483,294.3,482.9,299.9z"/>
		<path id="XMLID_8_" d="M516.2,299.7c0.1-11.7,9.5-21,21.3-20.9c11.6,0,21.2,9.8,21,21.3c-0.2,11.7-9.7,21-21.3,21
			C525.4,321,516.1,311.4,516.2,299.7z M547.3,300.2c0.1-5.7-4.4-10.4-10.1-10.5c-5.3,0-10,4.6-10.2,10c-0.2,5.6,4.6,10.4,10.1,10.5
			C542.6,310.1,547.2,305.6,547.3,300.2z"/>
		<path id="XMLID_7_" d="M383.2,285.4c0-4.6,0.1-9.2,0-13.7c0-1.6,0.5-2.3,2.1-2.8c2.3-0.6,4.6-1.4,6.9-2.2c1.6-0.6,2.2-0.4,2.1,1.4
			c-0.1,3.1,0,6.2-0.1,9.2c0,1.4,0.4,1.9,1.8,1.9c2.7-0.1,5.5,0.1,8.2-0.1c1.6-0.1,2,0.5,1.9,2c-0.1,2.2-0.1,4.3,0,6.5
			c0.1,1.5-0.3,2.1-1.9,2c-2.7-0.1-5.5,0-8.2,0c-1,0-1.9-0.1-1.8,1.3c0.2,3.2-0.3,6.5,0.3,9.7c1,5.1,4.7,8.8,9.9,9.5
			c1.2,0.2,1.7,0.5,1.7,1.8c-0.1,2.7-0.1,5.3,0,8c0,1.3-0.4,1.4-1.6,1.3c-11.7-0.8-21-10.3-21.3-22.1
			C383.1,294.5,383.2,289.9,383.2,285.4L383.2,285.4z"/>
		<path id="XMLID_6_" d="M574.1,277.8c0,11.4,0,22.4,0,33.5c0,2.5-0.1,5,0,7.5c0,1.3-0.4,1.8-1.7,1.7c-2.4-0.1-4.8-0.1-7.2,0
			c-1.7,0.1-2.1-0.5-2.1-2.1c0.1-6.3,0-12.7,0-19c0-5.3,0-10.7,0-16c0-1.4,0.3-2.3,1.8-2.7C567.9,279.9,570.9,278.9,574.1,277.8z"/>
		<path id="XMLID_5_" d="M370.2,283c-2.5,0.6-2.6-0.5-2.3-2.7c0.7-4.2,1.3-8.4,1.7-12.6c0.2-1.8,0.7-2.7,2.8-2.6
			c3.9,0.2,4,0,3.1,3.9c-0.9,4-1.9,7.9-2.6,11.9C372.6,282.6,372,283.5,370.2,283z"/>
	</g>
</g>
</svg>
